<?xml version="1.0" encoding="UTF-8" standalone="no"?>
<svg width="1036px" height="674px" viewBox="0 0 1036 674" version="1.1" xmlns="http://www.w3.org/2000/svg" xmlns:xlink="http://www.w3.org/1999/xlink">
    <!-- Generator: Sketch 3.8.3 (29802) - http://www.bohemiancoding.com/sketch -->
    <title>Group 2 Copy</title>
    <desc>Created with Sketch.</desc>
    <defs></defs>
    <g id="Page-1" stroke="none" stroke-width="1" fill="none" fill-rule="evenodd">
        <g id="Group-2-Copy">
            <path d="M290.08,663.804808 L289.044,659.6625 L288.008,657.591346 L288.008,657.591346 L285.936,657.591346 L282.828,659.6625 L281.792,662.769231 L280.756,664.840385 L276.612,662.769231 L272.468,659.6625 L270.396,658.626923 L274.54,663.804808 L277.648,666.911538 L281.792,670.018269 L284.9,671.053846 L286.972,672.089423 L290.08,673.125 L292.152,671.053846 L293.188,668.982692 L294.224,671.053846 L297.332,671.053846 L298.368,668.982692 L294.224,667.947115 L290.08,663.804808 L290.08,663.804808 Z M913.752,607.883654 C912.716,607.883654 911.68,608.919231 909.608,608.919231 L906.5,607.883654 L904.428,607.883654 L904.428,609.954808 L906.5,613.061538 L906.5,615.132692 L908.572,618.239423 L910.644,618.239423 L911.68,618.239423 L913.752,615.132692 L914.788,616.168269 L914.788,613.061538 L915.824,612.025962 L915.824,607.883654 L913.752,607.883654 L913.752,607.883654 Z M989.38,608.919231 L987.308,610.990385 C987.308,609.954808 986.272,608.919231 986.272,607.883654 L984.2,608.919231 L984.2,610.990385 L983.164,612.025962 L982.128,615.132692 L980.056,617.203846 C979.02,618.239423 976.948,619.275 975.912,620.310577 L973.84,621.346154 L969.696,625.488462 L968.66,628.595192 L968.66,629.630769 L971.768,629.630769 L973.84,630.666346 L976.948,630.666346 C977.984,629.630769 979.02,628.595192 981.092,627.559615 L983.164,623.417308 L984.2,620.310577 L986.272,619.275 L988.344,619.275 L987.308,617.203846 L988.344,615.132692 C989.38,614.097115 990.416,612.025962 991.452,609.954808 L991.452,607.883654 L989.38,608.919231 L989.38,608.919231 Z M999.74,597.527885 L997.668,597.527885 L994.56,596.492308 L994.56,593.385577 L993.524,592.35 L993.524,594.421154 L991.452,590.278846 L990.416,587.172115 L988.344,586.136538 L986.272,585.100962 L985.236,585.100962 L986.272,587.172115 L988.344,590.278846 L989.38,591.314423 L989.38,592.35 L990.416,594.421154 L990.416,596.492308 L990.416,599.599038 L988.344,600.634615 L988.344,601.670192 L991.452,602.705769 L992.488,604.776923 L990.416,607.883654 L991.452,608.919231 L991.452,609.954808 L993.524,608.919231 C994.56,606.848077 995.596,604.776923 996.632,603.741346 L996.632,601.670192 L997.668,600.634615 L999.74,600.634615 L1000.776,598.563462 L1001.812,595.456731 L1000.776,595.456731 L999.74,597.527885 L999.74,597.527885 Z M630.924,518.824038 L629.888,516.752885 L628.852,515.717308 L627.816,514.681731 L626.78,515.717308 L626.78,517.788462 L624.708,519.859615 L623.672,519.859615 L623.672,520.895192 L622.636,521.930769 L621.6,522.966346 L619.528,525.0375 L618.492,525.0375 L617.456,526.073077 L615.384,527.108654 L614.348,527.108654 L614.348,529.179808 L613.312,531.250962 L613.312,534.357692 L614.348,536.428846 L615.384,537.464423 L615.384,539.535577 L614.348,541.606731 L614.348,542.642308 L613.312,543.677885 L613.312,545.749038 L613.312,547.820192 L614.348,549.891346 L614.348,552.998077 L615.384,555.069231 C616.42,556.104808 618.492,556.104808 619.528,557.140385 L621.6,556.104808 L623.672,555.069231 L624.708,550.926923 C625.744,544.713462 627.816,538.5 629.888,533.322115 L629.888,531.250962 L630.924,530.215385 L630.924,529.179808 L629.888,527.108654 L630.924,526.073077 L631.96,528.144231 L631.96,527.108654 L631.96,526.073077 L630.924,525.0375 L630.924,518.824038 L630.924,518.824038 Z M929.292,559.211538 L929.292,557.140385 L928.256,554.033654 L926.184,551.9625 C925.148,550.926923 924.112,549.891346 923.076,548.855769 L923.076,545.749038 L922.04,545.749038 L921.004,544.713462 L919.968,545.749038 L918.932,542.642308 L916.86,540.571154 L916.86,539.535577 C915.824,538.5 913.752,537.464423 912.716,536.428846 L909.608,534.357692 L908.572,532.286538 L908.572,530.215385 L907.536,528.144231 L906.5,528.144231 C906.5,527.108654 905.464,525.0375 905.464,524.001923 L905.464,522.966346 L904.428,521.930769 L903.392,520.895192 L901.32,521.930769 L901.32,518.824038 L901.32,517.788462 L901.32,515.717308 L900.284,514.681731 L900.284,513.646154 L899.248,513.646154 L899.248,511.575 L898.212,510.539423 L897.176,511.575 L897.176,512.610577 L896.14,514.681731 L895.104,516.752885 L895.104,517.788462 L894.068,518.824038 L894.068,520.895192 L894.068,522.966346 L894.068,524.001923 L894.068,525.0375 L893.032,527.108654 L893.032,529.179808 L891.996,530.215385 L890.96,532.286538 L888.888,533.322115 L885.78,532.286538 L885.78,531.250962 L884.744,530.215385 L883.708,530.215385 L881.636,528.144231 L880.6,527.108654 L880.6,524.001923 L878.528,522.966346 L878.528,521.930769 L879.564,520.895192 L880.6,519.859615 L880.6,518.824038 L881.636,518.824038 L882.672,517.788462 L883.708,515.717308 L880.6,513.646154 L880.6,513.646154 L879.564,513.646154 L877.492,514.681731 L875.42,513.646154 L874.384,513.646154 L872.312,512.610577 L871.276,511.575 L869.204,510.539423 L868.168,510.539423 L870.24,511.575 L870.24,512.610577 L868.168,513.646154 L867.132,513.646154 L865.06,514.681731 L864.024,516.752885 L864.024,517.788462 L862.988,518.824038 L861.952,520.895192 L862.988,522.966346 L860.916,522.966346 L858.844,522.966346 L856.772,520.895192 L854.7,519.859615 C853.664,519.859615 852.628,520.895192 851.592,520.895192 L851.592,521.930769 L850.556,521.930769 L850.556,522.966346 L849.52,522.966346 L847.448,522.966346 L845.376,524.001923 L845.376,526.073077 L844.34,525.0375 L843.304,526.073077 L844.34,527.108654 L843.304,528.144231 L842.268,525.0375 L840.196,527.108654 L840.196,530.215385 L838.124,531.250962 L837.088,533.322115 L835.016,534.357692 L831.908,535.393269 L829.836,535.393269 L828.8,535.393269 L828.8,536.428846 L826.728,536.428846 L824.656,537.464423 L823.62,537.464423 L822.584,537.464423 L820.512,538.5 L819.476,539.535577 L817.404,543.677885 L816.368,545.749038 L816.368,543.677885 L815.332,545.749038 L815.332,547.820192 L815.332,549.891346 L814.296,550.926923 L814.296,552.998077 L815.332,554.033654 L815.332,555.069231 L816.368,557.140385 L816.368,559.211538 L815.332,558.175962 L814.296,557.140385 L815.332,560.247115 L814.296,559.211538 L814.296,560.247115 L816.368,562.318269 L816.368,564.389423 L817.404,565.425 L817.404,566.460577 L818.44,568.531731 L818.44,570.602885 L818.44,572.674038 L819.476,575.780769 L819.476,577.851923 L819.476,579.923077 L819.476,580.958654 L819.476,581.994231 L818.44,581.994231 L818.44,584.065385 L820.512,585.100962 L823.62,587.172115 L827.764,587.172115 L828.8,586.136538 L829.836,585.100962 L830.872,585.100962 L832.944,583.029808 L835.016,583.029808 L837.088,583.029808 L839.16,584.065385 L841.232,584.065385 L843.304,584.065385 L844.34,583.029808 L845.376,580.958654 L847.448,579.923077 L850.556,577.851923 L853.664,577.851923 C855.736,576.816346 858.844,575.780769 860.916,575.780769 L866.096,575.780769 L869.204,577.851923 L871.276,577.851923 L875.42,579.923077 L874.384,580.958654 L875.42,581.994231 L877.492,584.065385 L877.492,586.136538 L879.564,587.172115 L880.6,584.065385 L882.672,583.029808 L884.744,579.923077 L884.744,581.994231 L883.708,584.065385 L883.708,586.136538 L882.672,588.207692 L884.744,587.172115 L885.78,585.100962 L886.816,588.207692 L885.78,590.278846 L888.888,590.278846 L889.924,591.314423 L890.96,593.385577 L890.96,595.456731 L893.032,597.527885 L896.14,598.563462 L898.212,598.563462 C899.248,598.563462 901.32,599.599038 902.356,600.634615 L904.428,597.527885 L906.5,596.492308 L906.5,598.563462 L908.572,599.599038 L910.644,601.670192 L912.716,599.599038 L913.752,598.563462 L916.86,597.527885 L919.968,597.527885 L922.04,596.492308 L922.04,595.456731 L922.04,593.385577 L923.076,590.278846 L924.112,588.207692 L925.148,585.100962 L926.184,583.029808 L927.22,579.923077 L929.292,577.851923 L930.328,574.745192 L931.364,572.674038 L931.364,570.602885 C931.364,569.567308 932.4,567.496154 932.4,566.460577 L932.4,563.353846 L931.364,560.247115 L929.292,559.211538 L929.292,559.211538 Z M847.448,504.325962 L847.448,504.325962 L844.34,506.397115 L843.304,508.468269 L843.304,509.503846 L843.304,509.503846 L845.376,508.468269 L847.448,506.397115 C849.52,505.361538 851.592,505.361538 852.628,504.325962 L853.664,503.290385 L852.628,503.290385 L851.592,503.290385 L849.52,503.290385 L847.448,504.325962 L847.448,504.325962 Z M827.764,503.290385 L826.728,502.254808 L825.692,503.290385 L823.62,503.290385 L822.584,505.361538 L824.656,505.361538 C826.728,505.361538 827.764,504.325962 829.836,504.325962 L828.8,503.290385 L827.764,503.290385 L827.764,503.290385 Z M837.088,503.290385 L835.016,502.254808 L832.944,503.290385 L832.944,504.325962 L837.088,504.325962 L841.232,503.290385 L841.232,501.219231 L839.16,503.290385 L837.088,503.290385 L837.088,503.290385 Z M817.404,504.325962 L820.512,503.290385 L817.404,501.219231 L813.26,500.183654 L812.224,498.1125 L807.044,497.076923 L806.008,498.1125 L800.828,498.1125 L800.828,497.076923 L799.792,497.076923 L797.72,496.041346 L794.612,496.041346 L792.54,499.148077 L795.648,499.148077 L795.648,500.183654 L800.828,501.219231 L801.864,501.219231 L803.936,501.219231 L807.044,502.254808 L810.152,503.290385 L813.26,503.290385 L816.368,503.290385 L817.404,504.325962 L817.404,504.325962 Z M912.716,496.041346 L907.536,493.970192 L907.536,491.899038 L906.5,491.899038 L904.428,490.863462 L899.248,488.792308 L894.068,486.721154 L890.96,485.685577 C889.924,484.65 887.852,484.65 886.816,483.614423 L884.744,483.614423 L880.6,485.685577 L878.528,488.792308 L875.42,486.721154 L874.384,481.543269 L874.384,480.507692 L870.24,479.472115 L869.204,480.507692 L864.024,481.543269 L865.06,482.578846 L867.132,483.614423 L868.168,485.685577 L872.312,485.685577 L872.312,486.721154 L870.24,486.721154 L867.132,487.756731 L869.204,488.792308 L869.204,489.827885 L870.24,490.863462 L871.276,490.863462 L872.312,489.827885 L876.456,492.934615 L878.528,492.934615 L883.708,495.005769 L884.744,497.076923 L885.78,500.183654 L883.708,501.219231 L882.672,503.290385 L886.816,503.290385 L887.852,502.254808 L890.96,503.290385 L893.032,505.361538 L896.14,505.361538 L898.212,505.361538 L900.284,504.325962 L900.284,502.254808 L902.356,501.219231 L904.428,500.183654 L908.572,501.219231 L909.608,503.290385 L911.68,505.361538 L913.752,507.432692 C915.824,507.432692 916.86,508.468269 918.932,508.468269 L919.968,509.503846 L922.04,509.503846 L922.04,508.468269 L918.932,507.432692 L919.968,506.397115 L917.896,506.397115 L917.896,505.361538 L915.824,505.361538 L914.788,502.254808 L911.68,500.183654 L911.68,498.1125 L914.788,498.1125 L912.716,496.041346 L912.716,496.041346 Z M830.872,482.578846 L830.872,484.65 L829.836,486.721154 L830.872,488.792308 L831.908,488.792308 L831.908,491.899038 L830.872,495.005769 L831.908,496.041346 L833.98,496.041346 L833.98,488.792308 L836.052,487.756731 L836.052,490.863462 L838.124,492.934615 L838.124,493.970192 L839.16,495.005769 L842.268,493.970192 L839.16,493.970192 L840.196,495.005769 L841.232,493.970192 L841.232,491.899038 L838.124,488.792308 L839.16,487.756731 L836.052,483.614423 L838.124,482.578846 L839.16,480.507692 L840.196,480.507692 L840.196,479.472115 L837.088,481.543269 L835.016,482.578846 L832.944,480.507692 L832.944,478.436538 L835.016,478.436538 L840.196,478.436538 L843.304,479.472115 L845.376,478.436538 L847.448,475.329808 L847.448,474.294231 L844.34,476.365385 L841.232,476.365385 L837.088,476.365385 L835.016,475.329808 L832.944,477.400962 L831.908,478.436538 L830.872,482.578846 L830.872,482.578846 Z M792.54,490.863462 L793.576,487.756731 L792.54,485.685577 L790.468,485.685577 L789.432,483.614423 L789.432,481.543269 L787.36,481.543269 L785.288,480.507692 L786.324,478.436538 L784.252,477.400962 L782.18,475.329808 L780.108,473.258654 L777,473.258654 L773.892,470.151923 L771.82,469.116346 L769.748,467.045192 L767.676,463.938462 C765.604,463.938462 763.532,462.902885 761.46,462.902885 L761.46,463.938462 L764.568,467.045192 L766.64,469.116346 L767.676,471.1875 L770.784,473.258654 L771.82,475.329808 L772.856,477.400962 L774.928,479.472115 L777,483.614423 L778.036,485.685577 L780.108,487.756731 L781.144,489.827885 L785.288,491.899038 L787.36,493.970192 L790.468,493.970192 L792.54,490.863462 L792.54,490.863462 Z M823.62,458.760577 L822.584,460.831731 L820.512,462.902885 L818.44,464.974038 L817.404,466.009615 L816.368,468.080769 L814.296,470.151923 L811.188,471.1875 L808.08,471.1875 L808.08,473.258654 L806.008,474.294231 L803.936,473.258654 L801.864,475.329808 L801.864,478.436538 L801.864,480.507692 L802.9,482.578846 L803.936,483.614423 L803.936,487.756731 L806.008,487.756731 L808.08,487.756731 L809.116,488.792308 L812.224,487.756731 L813.26,488.792308 L815.332,488.792308 L816.368,490.863462 L819.476,489.827885 L819.476,490.863462 L820.512,486.721154 L820.512,483.614423 L823.62,481.543269 L823.62,478.436538 L824.656,476.365385 L827.764,476.365385 L824.656,473.258654 L824.656,472.223077 L822.584,469.116346 L824.656,466.009615 L826.728,464.974038 L826.728,463.938462 L828.8,463.938462 L828.8,462.902885 C827.764,462.902885 825.692,461.867308 824.656,460.831731 L824.656,459.796154 L823.62,458.760577 L823.62,458.760577 L823.62,458.760577 Z M843.304,453.582692 L841.232,454.618269 L839.16,455.653846 L839.16,457.725 L839.16,458.760577 L841.232,456.689423 L842.268,456.689423 L843.304,455.653846 L845.376,456.689423 L844.34,457.725 L845.376,459.796154 L848.484,461.867308 L849.52,460.831731 L848.484,458.760577 L849.52,457.725 L850.556,460.831731 L851.592,457.725 C851.592,455.653846 850.556,453.582692 850.556,451.511538 L848.484,450.475962 L848.484,452.547115 L846.412,452.547115 L846.412,453.582692 L844.34,454.618269 L843.304,453.582692 L843.304,453.582692 Z M841.232,447.369231 L841.232,449.440385 L840.196,450.475962 L840.196,450.475962 L842.268,452.547115 L843.304,451.511538 L844.34,449.440385 L845.376,448.404808 L845.376,445.298077 L843.304,448.404808 L843.304,446.333654 L841.232,447.369231 L841.232,447.369231 Z M829.836,448.404808 L828.8,450.475962 L826.728,452.547115 L825.692,454.618269 L829.836,451.511538 L830.872,449.440385 L832.944,447.369231 L832.944,445.298077 L829.836,448.404808 L829.836,448.404808 Z M849.52,443.226923 L848.484,442.191346 L845.376,442.191346 L847.448,444.2625 L847.448,445.298077 L845.376,445.298077 L845.376,447.369231 L846.412,447.369231 L846.412,449.440385 L847.448,448.404808 L846.412,446.333654 L846.412,445.298077 L848.484,446.333654 L849.52,443.226923 L849.52,443.226923 Z M840.196,424.586538 L840.196,424.586538 L837.088,424.586538 L835.016,424.586538 L833.98,427.693269 L833.98,432.871154 L832.944,431.835577 L832.944,434.942308 L832.944,435.977885 L833.98,438.049038 L833.98,437.013462 L835.016,438.049038 L833.98,439.084615 L833.98,440.120192 L835.016,441.155769 L838.124,441.155769 L840.196,443.226923 L841.232,442.191346 L842.268,444.2625 L844.34,445.298077 L844.34,444.2625 L844.34,440.120192 L844.34,438.049038 L841.232,435.977885 L840.196,435.977885 L839.16,435.977885 L838.124,433.906731 L838.124,431.835577 L840.196,430.8 L841.232,428.728846 L839.16,426.657692 L840.196,424.586538 L840.196,424.586538 L840.196,424.586538 Z M265.216,420.444231 L267.288,420.444231 L269.36,420.444231 L271.432,420.444231 L271.432,419.408654 L269.36,417.3375 L267.288,417.3375 L267.288,416.301923 L265.216,415.266346 L264.18,415.266346 C262.108,414.230769 261.072,412.159615 259,411.124038 L255.892,411.124038 L254.856,410.088462 L251.748,409.052885 L249.676,409.052885 L247.604,409.052885 L246.568,409.052885 L244.496,409.052885 L243.46,410.088462 L242.424,411.124038 L241.388,412.159615 L240.352,413.195192 L241.388,413.195192 L242.424,413.195192 L242.424,412.159615 L243.46,412.159615 L245.532,410.088462 L248.64,410.088462 L248.64,412.159615 L249.676,413.195192 L253.82,413.195192 L254.856,414.230769 L257.964,415.266346 L260.036,415.266346 L261.072,417.3375 L262.108,418.373077 L264.18,418.373077 L265.216,419.408654 L263.144,421.479808 L265.216,420.444231 L265.216,420.444231 Z M871.276,376.95 L872.312,375.914423 L873.348,376.95 L875.42,374.878846 L875.42,373.843269 L873.348,372.807692 L872.312,373.843269 L870.24,373.843269 L868.168,375.914423 L868.168,377.985577 L870.24,379.021154 L871.276,376.95 L871.276,376.95 Z M887.852,360.380769 L883.708,364.523077 L881.636,362.451923 L878.528,368.665385 L875.42,367.629808 L869.204,368.665385 L867.132,370.736538 L864.024,372.807692 L862.988,374.878846 L859.88,375.914423 L860.916,377.985577 L862.988,379.021154 L861.952,382.127885 L862.988,383.163462 L865.06,382.127885 L867.132,375.914423 L864.024,373.843269 L867.132,373.843269 L870.24,371.772115 L875.42,370.736538 L875.42,373.843269 L877.492,374.878846 L881.636,370.736538 L886.816,370.736538 L890.96,368.665385 L891.996,366.594231 L891.996,364.523077 L893.032,361.416346 L893.032,357.274038 L896.14,353.131731 L896.14,350.025 L895.104,346.918269 L891.996,347.953846 L890.96,350.025 L890.96,354.167308 L888.888,358.309615 L887.852,360.380769 L887.852,360.380769 Z M891.996,339.669231 L890.96,342.775962 L890.96,346.918269 L894.068,346.918269 L896.14,342.775962 L900.284,345.882692 L902.356,341.740385 L906.5,340.704808 L905.464,336.5625 L904.428,336.5625 L902.356,336.5625 L900.284,335.526923 L897.176,331.384615 L896.14,334.491346 L895.104,339.669231 L891.996,339.669231 L891.996,339.669231 Z M325.304,305.495192 L326.34,304.459615 L325.304,304.459615 L322.196,305.495192 L320.124,308.601923 L317.016,315.850962 L314.944,318.957692 L315.98,319.993269 L313.908,321.028846 L313.908,322.064423 L319.088,322.064423 L322.196,322.064423 L325.304,323.1 L323.232,325.171154 L325.304,325.171154 L328.412,321.028846 L329.448,322.064423 L328.412,325.171154 L331.52,326.206731 L332.556,326.206731 L333.592,322.064423 L332.556,318.957692 L332.556,316.886538 L330.484,317.922115 L331.52,314.815385 L328.412,313.779808 L327.376,314.815385 L325.304,313.779808 L326.34,311.708654 L324.268,310.673077 L322.196,311.708654 C323.232,309.6375 324.268,307.566346 325.304,305.495192 L325.304,305.495192 Z M896.14,302.388462 L898.212,306.530769 L898.212,312.744231 L897.176,315.850962 L897.176,321.028846 L897.176,325.171154 L898.212,328.277885 L900.284,325.171154 L902.356,327.242308 L902.356,324.135577 L899.248,319.993269 L901.32,313.779808 L905.464,314.815385 L901.32,307.566346 L900.284,302.388462 L900.284,298.246154 C899.248,295.139423 899.248,293.068269 898.212,289.961538 L897.176,290.997115 L898.212,293.068269 L895.104,295.139423 L896.14,302.388462 L896.14,302.388462 Z M461.02,303.424038 L466.2,300.317308 L468.272,296.175 L468.272,293.068269 L469.308,289.961538 L466.2,286.854808 L464.128,286.854808 L457.912,293.068269 L458.948,298.246154 L456.876,303.424038 L461.02,303.424038 L461.02,303.424038 Z M470.344,285.819231 L472.416,283.748077 L473.452,284.783654 L472.416,286.854808 L473.452,287.890385 L476.56,288.925962 L478.632,292.032692 L478.632,295.139423 L474.488,295.139423 L473.452,298.246154 L475.524,300.317308 L472.416,301.352885 L473.452,303.424038 L477.596,304.459615 L473.452,305.495192 L469.308,310.673077 L470.344,311.708654 L472.416,309.6375 L475.524,309.6375 L477.596,307.566346 L478.632,308.601923 L483.812,307.566346 L487.956,307.566346 L491.064,305.495192 L490.028,303.424038 L491.064,302.388462 L491.064,299.281731 L487.956,298.246154 L486.92,296.175 L484.848,290.997115 L482.776,289.961538 L479.668,283.748077 L476.56,283.748077 L479.668,278.570192 L480.704,274.427885 L477.596,274.427885 L474.488,274.427885 L477.596,268.214423 L474.488,268.214423 L472.416,268.214423 L470.344,272.356731 L469.308,277.534615 L470.344,280.641346 L470.344,285.819231 L470.344,285.819231 Z M446.516,228.8625 L443.408,223.684615 L444.444,219.542308 L439.264,219.542308 L435.12,222.649038 L430.976,220.577885 L426.832,224.720192 L422.688,219.542308 L418.544,220.577885 L416.472,224.720192 L422.688,226.791346 L422.688,228.8625 L417.508,229.898077 L423.724,233.004808 L420.616,236.111538 C424.76,237.147115 428.904,238.182692 432.012,239.218269 C436.156,237.147115 439.264,235.075962 442.372,233.004808 L446.516,228.8625 L446.516,228.8625 Z M384.356,495.005769 L383.32,493.970192 L381.248,493.970192 L379.176,492.934615 L375.032,489.827885 L370.888,487.756731 L366.744,487.756731 L361.564,486.721154 L358.456,487.756731 L358.456,485.685577 L357.42,483.614423 L351.204,481.543269 L347.06,480.507692 L344.988,482.578846 L344.988,479.472115 L339.808,479.472115 L338.772,478.436538 L340.844,476.365385 L340.844,474.294231 L339.808,474.294231 L337.736,469.116346 L336.7,467.045192 L335.664,467.045192 L335.664,466.009615 L332.556,463.938462 C330.484,462.902885 328.412,462.902885 326.34,461.867308 L324.268,461.867308 L324.268,462.902885 L321.16,461.867308 C320.124,460.831731 319.088,459.796154 318.052,459.796154 L317.016,459.796154 L317.016,458.760577 L314.944,456.689423 C313.908,455.653846 312.872,455.653846 311.836,454.618269 L310.8,454.618269 L310.8,452.547115 L307.692,450.475962 L305.62,450.475962 L304.584,449.440385 L306.656,448.404808 L299.404,448.404808 L299.404,449.440385 L297.332,450.475962 L295.26,450.475962 L293.188,449.440385 L290.08,449.440385 L286.972,449.440385 L286.972,448.404808 L284.9,446.333654 L282.828,446.333654 L281.792,444.2625 L280.756,445.298077 L280.756,446.333654 L279.72,447.369231 L279.72,449.440385 L280.756,450.475962 L279.72,452.547115 L278.684,452.547115 L277.648,450.475962 L278.684,448.404808 L278.684,447.369231 L277.648,446.333654 L279.72,446.333654 L279.72,445.298077 L280.756,444.2625 L279.72,443.226923 L278.684,443.226923 L277.648,444.2625 C276.612,445.298077 275.576,445.298077 274.54,446.333654 L272.468,446.333654 L272.468,447.369231 L270.396,447.369231 L268.324,448.404808 L267.288,450.475962 L267.288,451.511538 L266.252,451.511538 L264.18,453.582692 L263.144,453.582692 L262.108,452.547115 L261.072,451.511538 L260.036,451.511538 L257.964,451.511538 L257.964,451.511538 L255.892,451.511538 L254.856,452.547115 L252.784,453.582692 L251.748,454.618269 L250.712,454.618269 L249.676,453.582692 L249.676,453.582692 L248.64,453.582692 L248.64,452.547115 C247.604,451.511538 246.568,450.475962 245.532,449.440385 L244.496,447.369231 L244.496,447.369231 L244.496,446.333654 L245.532,445.298077 L245.532,444.2625 L245.532,443.226923 L245.532,443.226923 L245.532,442.191346 L245.532,441.155769 L245.532,440.120192 L245.532,439.084615 L246.568,438.049038 L246.568,437.013462 L246.568,435.977885 L246.568,435.977885 L245.532,434.942308 L244.496,434.942308 L243.46,433.906731 L242.424,432.871154 L242.424,432.871154 L241.388,432.871154 L240.352,432.871154 L239.316,432.871154 L238.28,432.871154 L237.244,432.871154 L237.244,432.871154 L236.208,432.871154 L235.172,432.871154 L234.136,432.871154 L234.136,432.871154 L234.136,432.871154 L233.1,432.871154 L232.064,433.906731 L231.028,433.906731 L231.028,433.906731 L229.992,432.871154 L231.028,431.835577 L232.064,431.835577 L233.1,430.8 L233.1,429.764423 L233.1,429.764423 L233.1,428.728846 L233.1,428.728846 L233.1,427.693269 L233.1,426.657692 L232.064,426.657692 L232.064,426.657692 L233.1,426.657692 L234.136,427.693269 C234.136,426.657692 235.172,425.622115 235.172,423.550962 L234.136,422.515385 L235.172,420.444231 L237.244,418.373077 L237.244,417.3375 L236.208,416.301923 L234.136,416.301923 L232.064,416.301923 L228.956,417.3375 L226.884,418.373077 L226.884,419.408654 L226.884,421.479808 L225.848,423.550962 L223.776,424.586538 C222.74,424.586538 220.668,425.622115 219.632,425.622115 L217.56,425.622115 L215.488,426.657692 L214.452,425.622115 L211.344,424.586538 L207.2,421.479808 L207.2,420.444231 L205.128,418.373077 L204.092,416.301923 L203.056,415.266346 L203.056,413.195192 L203.056,412.159615 L203.056,408.017308 L203.056,405.946154 L204.092,402.839423 L204.092,402.839423 L204.092,402.839423 L203.056,401.803846 L203.056,400.768269 L203.056,398.697115 L204.092,397.661538 L206.164,395.590385 L209.272,394.554808 L212.38,392.483654 L214.452,391.448077 L216.524,391.448077 L218.596,392.483654 L220.668,392.483654 L222.74,394.554808 L224.812,394.554808 L225.848,393.519231 L226.884,393.519231 L227.92,393.519231 L227.92,389.376923 L227.92,388.341346 L226.884,387.305769 L227.92,387.305769 L229.992,387.305769 L232.064,387.305769 L235.172,387.305769 L237.244,388.341346 L238.28,390.4125 L238.28,390.4125 L241.388,389.376923 L242.424,389.376923 L244.496,392.483654 L245.532,394.554808 L244.496,396.625962 L244.496,397.661538 C245.532,399.732692 246.568,400.768269 247.604,402.839423 L248.64,403.875 L248.64,404.910577 L249.676,404.910577 L250.712,404.910577 L251.748,402.839423 L251.748,399.732692 L250.712,395.590385 L250.712,394.554808 L249.676,392.483654 L248.64,389.376923 L248.64,387.305769 L248.64,385.234615 L249.676,383.163462 L251.748,381.092308 L254.856,379.021154 L254.856,377.985577 L255.892,376.95 L256.928,376.95 L259,374.878846 L262.108,373.843269 L264.18,370.736538 L264.18,367.629808 L264.18,366.594231 L263.144,366.594231 L263.144,363.4875 L261.072,362.451923 L263.144,363.4875 L265.216,357.274038 L266.252,355.202885 L266.252,358.309615 L267.288,359.345192 L266.252,361.416346 L266.252,361.416346 C267.288,360.380769 268.324,358.309615 268.324,357.274038 L268.324,356.238462 L267.288,355.202885 L266.252,353.131731 L267.288,354.167308 L268.324,354.167308 L268.324,355.202885 L270.396,352.096154 L271.432,348.989423 L270.396,348.989423 L271.432,347.953846 L271.432,347.953846 L273.504,347.953846 L277.648,346.918269 L276.612,345.882692 L272.468,346.918269 L274.54,345.882692 L277.648,345.882692 L279.72,344.847115 L280.756,344.847115 L282.828,343.811538 L282.828,342.775962 L281.792,341.740385 L281.792,342.775962 L280.756,342.775962 L279.72,340.704808 L279.72,338.633654 C280.756,337.598077 280.756,336.5625 281.792,335.526923 C283.864,334.491346 285.936,333.455769 288.008,333.455769 L291.116,331.384615 L291.116,330.349038 L294.224,330.349038 L298.368,330.349038 L293.188,333.455769 L293.188,336.5625 L295.26,336.5625 L298.368,333.455769 L301.476,331.384615 L307.692,329.313462 L310.8,326.206731 L308.728,325.171154 L308.728,322.064423 L305.62,327.242308 L300.44,328.277885 L296.296,326.206731 L295.26,323.1 L294.224,318.957692 L297.332,315.850962 L295.26,313.779808 L291.116,313.779808 L284.9,317.922115 L280.756,323.1 L278.684,324.135577 L281.792,319.993269 L285.936,313.779808 L290.08,311.708654 L292.152,308.601923 L295.26,308.601923 L299.404,308.601923 L305.62,309.6375 L310.8,308.601923 L314.944,304.459615 L320.124,302.388462 C321.16,301.352885 323.232,300.317308 324.268,299.281731 L324.268,294.103846 L323.232,292.032692 L321.16,294.103846 L320.124,289.961538 L318.052,287.890385 L313.908,286.854808 L310.8,283.748077 L306.656,280.641346 L307.692,277.534615 C305.62,273.392308 303.548,268.214423 300.44,264.072115 L298.368,258.894231 L296.296,262.000962 L293.188,268.214423 L290.08,270.285577 L288.008,267.178846 L284.9,266.143269 L283.864,258.894231 L283.864,253.716346 L279.72,253.716346 L278.684,251.645192 L275.576,248.538462 L272.468,246.467308 L270.396,248.538462 L267.288,247.502885 L262.108,245.431731 L260.036,246.467308 L261.072,255.7875 L262.108,260.965385 L259,267.178846 L262.108,271.321154 L264.18,275.463462 L264.18,278.570192 L262.108,281.676923 L259,284.783654 L254.856,286.854808 L256.928,289.961538 L257.964,297.210577 L255.892,302.388462 L254.856,305.495192 L250.712,301.352885 L248.64,296.175 L247.604,290.997115 L247.604,286.854808 L244.496,286.854808 L239.316,286.854808 L236.208,284.783654 L233.1,283.748077 L231.028,281.676923 L227.92,279.605769 L222.74,277.534615 L218.596,278.570192 L217.56,272.356731 L216.524,267.178846 L212.38,266.143269 L212.38,259.929808 L213.416,255.7875 L216.524,248.538462 L219.632,243.360577 L222.74,242.325 L222.74,238.182692 L224.812,235.075962 L228.956,235.075962 L232.064,230.933654 L233.1,227.826923 L236.208,221.613462 L237.244,218.506731 L240.352,220.577885 L244.496,219.542308 L249.676,214.364423 L249.676,210.222115 L248.64,206.079808 L250.712,201.9375 L250.712,197.795192 L246.568,193.652885 L242.424,192.617308 L238.28,191.581731 L238.28,200.901923 L236.208,208.150962 L233.1,213.328846 L229.992,208.150962 L231.028,201.9375 L227.92,197.795192 L223.776,204.008654 L223.776,195.724038 L218.596,193.652885 L220.668,189.510577 L216.524,179.154808 L213.416,175.0125 L209.272,173.976923 L207.2,181.225962 L207.2,190.546154 L210.308,193.652885 L213.416,198.830769 L212.38,207.115385 L210.308,207.115385 L208.236,213.328846 L208.236,206.079808 L204.092,202.973077 L202.02,204.008654 L202.02,209.186538 L197.876,209.186538 L193.732,210.222115 L188.552,207.115385 L185.444,208.150962 L182.336,204.008654 L180.264,201.9375 L177.156,201.9375 L174.048,201.9375 L171.976,205.044231 L175.084,208.150962 L170.94,212.293269 L167.832,208.150962 L165.76,209.186538 L157.472,210.222115 L152.292,208.150962 L156.436,204.008654 L152.292,199.866346 L149.184,199.866346 L145.04,198.830769 L137.788,195.724038 L134.68,192.617308 L131.572,192.617308 L130.536,194.688462 L127.428,195.724038 L127.428,189.510577 L123.284,194.688462 L118.104,187.439423 L116.032,186.403846 L114.996,191.581731 L112.924,193.652885 L110.852,190.546154 L105.672,191.581731 L101.528,195.724038 L97.384,194.688462 L94.276,196.759615 L92.204,199.866346 L89.096,198.830769 L84.952,194.688462 C81.844,193.652885 79.772,192.617308 76.664,191.581731 L72.52,189.510577 L67.34,191.581731 L65.268,190.546154 L60.088,189.510577 L53.872,186.403846 L50.764,187.439423 L46.62,186.403846 L46.62,184.332692 L41.44,183.297115 L40.404,185.368269 L37.296,181.225962 L33.152,179.154808 L29.008,184.332692 L25.9,183.297115 L20.72,187.439423 L17.612,188.475 L14.504,192.617308 L13.468,196.759615 L10.36,199.866346 L5.18,199.866346 L3.108,204.008654 L7.252,206.079808 L10.36,210.222115 L12.432,214.364423 L15.54,217.471154 L17.612,221.613462 L11.396,221.613462 L11.396,218.506731 L10.36,218.506731 L4.144,221.613462 L0,224.720192 L4.144,228.8625 L5.18,231.969231 L9.324,233.004808 L13.468,231.969231 L15.54,233.004808 L16.576,231.969231 L19.684,230.933654 L21.756,230.933654 L18.648,233.004808 L20.72,235.075962 L20.72,237.147115 L18.648,239.218269 L16.576,238.182692 L14.504,241.289423 L12.432,240.253846 L10.36,240.253846 L9.324,243.360577 L7.252,246.467308 L6.216,249.574038 L8.288,251.645192 L8.288,254.751923 L10.36,258.894231 L12.432,262.000962 L16.576,260.965385 L18.648,263.036538 L17.612,265.107692 L17.612,268.214423 L19.684,268.214423 L22.792,266.143269 L23.828,269.25 L24.864,267.178846 L26.936,270.285577 L29.008,268.214423 L30.044,269.25 L33.152,267.178846 L32.116,270.285577 L32.116,274.427885 L30.044,276.499038 L29.008,277.534615 L24.864,280.641346 L23.828,282.7125 L20.72,283.748077 L17.612,286.854808 L14.504,288.925962 L11.396,290.997115 L11.396,292.032692 L16.576,290.997115 L18.648,288.925962 C18.648,286.854808 20.72,285.819231 22.792,284.783654 L24.864,284.783654 L27.972,282.7125 L29.008,280.641346 L33.152,277.534615 L34.188,275.463462 L37.296,273.392308 L40.404,271.321154 L43.512,267.178846 L40.404,264.072115 L44.548,259.929808 L46.62,255.7875 L50.764,252.680769 L51.8,254.751923 L48.692,256.823077 L47.656,263.036538 L47.656,266.143269 L50.764,264.072115 L52.836,262.000962 L55.944,260.965385 L58.016,260.965385 L56.98,256.823077 L60.088,255.7875 L63.196,257.858654 L68.376,260.965385 L72.52,260.965385 C75.628,262.000962 77.7,263.036538 80.808,264.072115 L87.024,270.285577 L90.132,272.356731 L94.276,272.356731 L97.384,272.356731 L99.456,277.534615 L103.6,281.676923 L104.636,285.819231 L106.708,287.890385 L108.78,289.961538 L108.78,292.032692 L111.888,295.139423 L111.888,299.281731 L116.032,301.352885 L116.032,304.459615 L118.104,308.601923 L123.284,310.673077 L125.356,312.744231 L130.536,316.886538 L130.536,316.886538 L131.572,319.993269 L131.572,323.1 L130.536,324.135577 L129.5,319.993269 L125.356,318.957692 L125.356,319.993269 L126.392,322.064423 L127.428,326.206731 L128.464,331.384615 L127.428,338.633654 L126.392,342.775962 L127.428,345.882692 L127.428,348.989423 L126.392,352.096154 L127.428,354.167308 L127.428,357.274038 L129.5,360.380769 L130.536,361.416346 L130.536,362.451923 L132.608,367.629808 L135.716,370.736538 L135.716,372.807692 L136.752,373.843269 L139.86,373.843269 L140.896,374.878846 L142.968,374.878846 L142.968,375.914423 L144.004,375.914423 L146.076,377.985577 L146.076,380.056731 L147.112,383.163462 C148.148,385.234615 149.184,388.341346 150.22,390.4125 L152.292,391.448077 L154.364,393.519231 L154.364,394.554808 L153.328,395.590385 L152.292,395.590385 L152.292,395.590385 L154.364,397.661538 L156.436,398.697115 L157.472,399.732692 L157.472,399.732692 C158.508,400.768269 159.544,401.803846 160.58,401.803846 L160.58,403.875 L160.58,405.946154 L161.616,406.981731 L163.688,408.017308 L165.76,410.088462 L166.796,412.159615 L166.796,412.159615 L167.832,411.124038 L167.832,410.088462 C166.796,409.052885 166.796,408.017308 165.76,406.981731 L164.724,406.981731 L164.724,404.910577 C164.724,403.875 163.688,402.839423 162.652,401.803846 L163.688,398.697115 L161.616,396.625962 L160.58,395.590385 L159.544,394.554808 L158.508,392.483654 L158.508,392.483654 L158.508,391.448077 L158.508,391.448077 L158.508,390.4125 L155.4,388.341346 L154.364,387.305769 L154.364,385.234615 L154.364,383.163462 L154.364,382.127885 L156.436,383.163462 L157.472,383.163462 L159.544,384.199038 L159.544,385.234615 L160.58,387.305769 L162.652,389.376923 L162.652,390.4125 C163.688,391.448077 164.724,392.483654 165.76,393.519231 L167.832,393.519231 L168.868,395.590385 L170.94,397.661538 L171.976,398.697115 L171.976,400.768269 L173.012,401.803846 L175.084,402.839423 L176.12,404.910577 L179.228,406.981731 L181.3,410.088462 L182.336,412.159615 L182.336,413.195192 L183.372,414.230769 L183.372,415.266346 L182.336,416.301923 L182.336,417.3375 L181.3,417.3375 L182.336,418.373077 L183.372,420.444231 L186.48,422.515385 L187.516,423.550962 L190.624,424.586538 L192.696,424.586538 L193.732,425.622115 L195.804,426.657692 L198.912,427.693269 L200.984,427.693269 L204.092,428.728846 L206.164,429.764423 L208.236,430.8 L209.272,430.8 L211.344,429.764423 L213.416,429.764423 L215.488,430.8 L216.524,431.835577 L219.632,434.942308 L221.704,435.977885 L222.74,437.013462 L224.812,437.013462 L225.848,438.049038 L226.884,439.084615 L228.956,439.084615 L229.992,440.120192 L231.028,440.120192 L233.1,440.120192 L233.1,439.084615 L234.136,439.084615 L234.136,440.120192 L234.136,440.120192 L234.136,440.120192 L234.136,440.120192 L235.172,441.155769 L236.208,442.191346 L237.244,443.226923 C238.28,444.2625 239.316,444.2625 239.316,445.298077 L238.28,446.333654 L239.316,446.333654 L239.316,447.369231 L239.316,448.404808 L239.316,449.440385 L240.352,449.440385 L241.388,450.475962 L242.424,449.440385 L242.424,448.404808 L243.46,449.440385 L243.46,450.475962 L244.496,450.475962 L245.532,451.511538 L246.568,452.547115 L246.568,453.582692 L246.568,453.582692 L247.604,454.618269 L249.676,455.653846 L249.676,455.653846 L249.676,454.618269 L250.712,454.618269 L251.748,454.618269 L252.784,454.618269 L253.82,455.653846 L254.856,455.653846 L254.856,455.653846 L254.856,457.725 L255.892,457.725 L255.892,457.725 L256.928,457.725 L255.892,455.653846 L255.892,454.618269 L256.928,454.618269 L257.964,453.582692 L259,452.547115 L260.036,452.547115 L261.072,453.582692 L262.108,454.618269 L263.144,454.618269 L259,455.653846 L260.036,457.725 L261.072,458.760577 L262.108,459.796154 L262.108,461.867308 L261.072,462.902885 L262.108,466.009615 L261.072,468.080769 L262.108,469.116346 C261.072,470.151923 260.036,471.1875 260.036,472.223077 L259,471.1875 L259,472.223077 L259,473.258654 L257.964,473.258654 L257.964,474.294231 L255.892,475.329808 L253.82,476.365385 L253.82,477.400962 L252.784,479.472115 L252.784,481.543269 L251.748,481.543269 L251.748,484.65 L250.712,485.685577 L252.784,486.721154 L253.82,485.685577 L254.856,486.721154 L253.82,488.792308 L251.748,490.863462 L250.712,492.934615 L251.748,496.041346 L250.712,497.076923 L252.784,498.1125 L254.856,500.183654 L255.892,502.254808 L256.928,503.290385 C259,507.432692 261.072,510.539423 262.108,514.681731 L264.18,518.824038 L264.18,519.859615 L265.216,521.930769 L267.288,524.001923 L272.468,527.108654 L278.684,530.215385 L278.684,531.250962 L281.792,533.322115 L282.828,537.464423 L282.828,542.642308 C281.792,548.855769 280.756,556.104808 280.756,562.318269 L279.72,566.460577 L279.72,570.602885 L278.684,573.709615 L279.72,578.8875 L278.684,584.065385 C277.648,588.207692 275.576,591.314423 274.54,595.456731 L273.504,595.456731 L273.504,599.599038 L274.54,602.705769 L273.504,604.776923 C272.468,608.919231 272.468,613.061538 271.432,617.203846 L273.504,618.239423 L274.54,613.061538 L276.612,614.097115 L275.576,622.381731 L272.468,621.346154 L271.432,628.595192 L268.324,632.7375 L272.468,633.773077 L269.36,636.879808 L268.324,641.022115 L268.324,648.271154 L269.36,651.377885 L268.324,654.484615 L269.36,657.591346 L272.468,660.698077 L275.576,663.804808 L278.684,665.875962 L279.72,665.875962 L279.72,661.733654 L282.828,659.6625 L283.864,658.626923 L285.936,658.626923 L286.972,658.626923 L284.9,655.520192 L283.864,650.342308 L284.9,648.271154 L288.008,646.2 L290.08,641.022115 L293.188,638.950962 L294.224,634.808654 L291.116,633.773077 L288.008,630.666346 L289.044,627.559615 L291.116,625.488462 L294.224,625.488462 L295.26,623.417308 L295.26,619.275 L300.44,616.168269 L303.548,615.132692 L302.512,613.061538 L300.44,614.097115 L298.368,613.061538 L298.368,608.919231 L299.404,607.883654 L302.512,608.919231 L305.62,607.883654 L307.692,606.848077 L305.62,605.8125 L306.656,602.705769 L305.62,600.634615 L308.728,600.634615 L314.944,599.599038 L319.088,597.527885 L322.196,592.35 L322.196,590.278846 L320.124,588.207692 L320.124,586.136538 L317.016,585.100962 L317.016,583.029808 L319.088,585.100962 L321.16,585.100962 L324.268,586.136538 L326.34,586.136538 L328.412,587.172115 L331.52,585.100962 L332.556,583.029808 L334.628,580.958654 L335.664,577.851923 L337.736,575.780769 L339.808,572.674038 L342.916,566.460577 L344.988,564.389423 L346.024,562.318269 L347.06,559.211538 L347.06,557.140385 L347.06,555.069231 L349.132,551.9625 L352.24,549.891346 L355.348,548.855769 L357.42,547.820192 L361.564,546.784615 L364.672,546.784615 L365.708,544.713462 L367.78,543.677885 L367.78,540.571154 L370.888,536.428846 L370.888,532.286538 L371.924,531.250962 C371.924,529.179808 372.96,527.108654 372.96,525.0375 L372.96,519.859615 L373.996,517.788462 L375.032,517.788462 L377.104,515.717308 L379.176,512.610577 L383.32,508.468269 L384.356,506.397115 L385.392,501.219231 C385.392,498.1125 384.356,496.041346 384.356,495.005769 L384.356,495.005769 Z M150.22,180.190385 L144.004,183.297115 L145.04,186.403846 L149.184,186.403846 L155.4,185.368269 L160.58,187.439423 L156.436,188.475 L152.292,188.475 L148.148,189.510577 L147.112,191.581731 L150.22,197.795192 L152.292,196.759615 L156.436,198.830769 L158.508,202.973077 C162.652,201.9375 166.796,201.9375 170.94,200.901923 L176.12,197.795192 L179.228,197.795192 L184.408,199.866346 L189.588,200.901923 L190.624,197.795192 L188.552,194.688462 L193.732,193.652885 L193.732,189.510577 C190.624,186.403846 186.48,184.332692 183.372,181.225962 C182.336,176.048077 181.3,170.870192 180.264,165.692308 L177.156,161.55 L174.048,159.478846 L171.976,160.514423 L174.048,170.870192 L173.012,175.0125 L170.94,165.692308 L167.832,162.585577 L164.724,167.763462 L160.58,162.585577 L154.364,165.692308 L155.4,161.55 L153.328,160.514423 L145.04,166.727885 L142.968,170.870192 L140.896,178.119231 L146.076,180.190385 L150.22,180.190385 L150.22,180.190385 Z M290.08,190.546154 L288.008,187.439423 L280.756,184.332692 L277.648,178.119231 L272.468,180.190385 L272.468,176.048077 L267.288,170.870192 L261.072,165.692308 L257.964,169.834615 L251.748,172.941346 L251.748,166.727885 L246.568,156.372115 L240.352,160.514423 L238.28,168.799038 L236.208,162.585577 L238.28,156.372115 L231.028,159.478846 L227.92,162.585577 L225.848,170.870192 L226.884,180.190385 L231.028,180.190385 L227.92,184.332692 L229.992,187.439423 L235.172,188.475 L241.388,190.546154 L251.748,192.617308 L256.928,191.581731 L257.964,189.510577 L260.036,192.617308 L262.108,192.617308 L265.216,197.795192 L263.144,199.866346 L269.36,202.973077 L273.504,207.115385 L274.54,210.222115 L275.576,213.328846 L271.432,220.577885 L270.396,223.684615 L271.432,225.755769 L265.216,226.791346 L260.036,226.791346 L259,231.969231 L261.072,234.040385 L269.36,233.004808 L269.36,230.933654 C272.468,233.004808 274.54,235.075962 277.648,237.147115 L276.612,239.218269 L279.72,242.325 L285.936,246.467308 L294.224,248.538462 L294.224,246.467308 C292.152,243.360577 289.044,240.253846 286.972,237.147115 L294.224,242.325 L298.368,244.396154 L299.404,240.253846 L297.332,233.004808 L296.296,230.933654 L292.152,227.826923 L289.044,223.684615 L289.044,219.542308 L293.188,218.506731 L297.332,225.755769 L300.44,228.8625 L305.62,220.577885 L306.656,215.4 L302.512,215.4 L298.368,208.150962 L294.224,206.079808 L286.972,201.9375 L292.152,197.795192 L290.08,190.546154 L290.08,190.546154 Z M195.804,155.336538 L192.696,160.514423 L195.804,166.727885 L189.588,165.692308 L189.588,168.799038 L196.84,176.048077 L198.912,179.154808 L202.02,180.190385 L207.2,177.083654 L208.236,168.799038 L204.092,164.656731 L207.2,159.478846 L206.164,156.372115 L200.984,157.407692 L195.804,155.336538 L195.804,155.336538 Z M210.308,155.336538 L209.272,159.478846 L209.272,164.656731 L211.344,172.941346 L214.452,172.941346 L217.56,165.692308 L220.668,163.621154 L224.812,154.300962 L219.632,152.229808 L213.416,152.229808 L210.308,155.336538 L210.308,155.336538 Z M893.032,144.980769 L903.392,144.980769 L905.464,136.696154 L895.104,130.482692 L887.852,129.447115 L883.708,131.518269 L882.672,139.802885 L888.888,147.051923 L893.032,144.980769 L893.032,144.980769 Z M192.696,127.375962 L189.588,127.375962 L189.588,136.696154 L194.768,135.660577 L194.768,141.874038 L197.876,143.945192 L203.056,142.909615 L204.092,134.625 L204.092,128.411538 L202.02,122.198077 L202.02,124.269231 L196.84,123.233654 L192.696,127.375962 L192.696,127.375962 Z M162.652,140.838462 L156.436,146.016346 L156.436,149.123077 L160.58,149.123077 L167.832,143.945192 L177.156,141.874038 L179.228,136.696154 L179.228,130.482692 L176.12,129.447115 L174.048,131.518269 L173.012,129.447115 L171.976,123.233654 L168.868,122.198077 L165.76,126.340385 L169.904,137.731731 L165.76,136.696154 L160.58,129.447115 L152.292,125.304808 L149.184,129.447115 L145.04,140.838462 L149.184,142.909615 L162.652,140.838462 L162.652,140.838462 Z M635.068,178.119231 L640.248,180.190385 L641.284,184.332692 L650.608,185.368269 L652.68,184.332692 L647.5,177.083654 L646.464,169.834615 C649.572,163.621154 652.68,156.372115 655.788,150.158654 L665.112,139.802885 C671.328,135.660577 677.544,132.553846 683.76,128.411538 L685.832,124.269231 L683.76,120.126923 L678.58,122.198077 L673.4,126.340385 L663.04,128.411538 L653.716,135.660577 L647.5,141.874038 L648.536,147.051923 L641.284,156.372115 L644.392,157.407692 L638.176,165.692308 L638.176,170.870192 L635.068,172.941346 L635.068,178.119231 L635.068,178.119231 Z M214.452,127.375962 L217.56,132.553846 L217.56,138.767308 L218.596,144.980769 L225.848,148.0875 L231.028,149.123077 L237.244,149.123077 L245.532,147.051923 L249.676,148.0875 L253.82,146.016346 L255.892,142.909615 L254.856,137.731731 L251.748,133.589423 L246.568,132.553846 L240.352,133.589423 L236.208,135.660577 L232.064,134.625 L227.92,134.625 L225.848,131.518269 L222.74,128.411538 L223.776,124.269231 L221.704,120.126923 L216.524,120.126923 L213.416,115.984615 L207.2,114.949038 L206.164,120.126923 L209.272,124.269231 L214.452,127.375962 L214.452,127.375962 Z M184.408,96.3086538 L181.3,100.450962 L187.516,101.486538 L192.696,105.628846 L197.876,106.664423 L196.84,101.486538 L194.768,94.2375 L186.48,89.0596154 L181.3,86.9884615 L181.3,93.2019231 L184.408,96.3086538 L184.408,96.3086538 Z M211.344,85.9528846 L216.524,85.9528846 L214.452,90.0951923 L214.452,95.2730769 L217.56,101.486538 L223.776,103.557692 L228.956,102.522115 L234.136,91.1307692 L238.28,86.9884615 L235.172,81.8105769 L233.1,70.4192308 C229.992,68.3480769 226.884,66.2769231 223.776,63.1701923 L219.632,52.8144231 L213.416,53.85 L214.452,57.9923077 L211.344,59.0278846 L209.272,64.2057692 L207.2,71.4548077 L209.272,78.7038462 L211.344,85.9528846 L211.344,85.9528846 Z M224.812,52.8144231 L226.884,60.0634615 L232.064,66.2769231 L242.424,65.2413462 L248.64,67.3125 L244.496,73.5259615 L242.424,71.4548077 L234.136,70.4192308 L235.172,78.7038462 L239.316,84.9173077 L238.28,90.0951923 L233.1,93.2019231 L231.028,98.3798077 L236.208,101.486538 L240.352,110.806731 L233.1,104.593269 L231.028,105.628846 L232.064,114.949038 L226.884,118.055769 L226.884,124.269231 L232.064,125.304808 L236.208,126.340385 L244.496,124.269231 L251.748,127.375962 L259,120.126923 L259,117.020192 L253.82,117.020192 L253.82,113.913462 L257.964,109.771154 L259,104.593269 L263.144,100.450962 L266.252,95.2730769 L264.18,88.0240385 L266.252,84.9173077 L262.108,82.8461538 L270.396,80.775 L272.468,77.6682692 L278.684,74.5615385 L283.864,61.0990385 L289.044,55.9211538 L296.296,44.5298077 L290.08,44.5298077 L293.188,40.3875 L300.44,36.2451923 L307.692,26.925 L307.692,20.7115385 L302.512,14.4980769 L296.296,15.5336538 C289.044,13.4625 282.828,12.4269231 275.576,10.3557692 L267.288,14.4980769 L266.252,11.3913462 L256.928,12.4269231 L251.748,15.5336538 L247.604,19.6759615 L245.532,32.1028846 L242.424,25.8894231 L239.316,24.8538462 L235.172,33.1384615 L228.956,36.2451923 L225.848,36.2451923 L221.704,40.3875 L222.74,47.6365385 L224.812,52.8144231 L224.812,52.8144231 Z M417.508,189.510577 L410.256,189.510577 L413.364,185.368269 L412.328,179.154808 C414.4,182.261538 416.472,184.332692 418.544,187.439423 L423.724,185.368269 L422.688,178.119231 L418.544,172.941346 L414.4,170.870192 L415.436,168.799038 L421.652,172.941346 L421.652,168.799038 L417.508,160.514423 L421.652,160.514423 L425.796,158.443269 L426.832,155.336538 L423.724,151.194231 L429.94,150.158654 L425.796,140.838462 L428.904,139.802885 L427.868,129.447115 L422.688,123.233654 L427.868,119.091346 L432.012,118.055769 L428.904,109.771154 L428.904,94.2375 C430.976,86.9884615 433.048,79.7394231 435.12,72.4903846 L428.904,71.4548077 L438.228,68.3480769 L440.3,64.2057692 L451.696,50.7432692 L449.624,42.4586538 L441.336,38.3163462 L426.832,46.6009615 L419.58,53.85 L422.688,42.4586538 L419.58,36.2451923 L414.4,42.4586538 L406.112,35.2096154 L395.752,37.2807692 L393.68,34.1740385 C403.004,33.1384615 411.292,32.1028846 420.616,31.0673077 L425.796,22.7826923 L408.184,3.10673077 L385.392,0 L375.032,2.07115385 L370.888,11.3913462 L360.528,10.3557692 L351.204,24.8538462 L351.204,34.1740385 L358.456,45.5653846 L352.24,39.3519231 L348.096,37.2807692 L340.844,28.9961538 L333.592,40.3875 L330.484,34.1740385 L321.16,34.1740385 L311.836,37.2807692 L304.584,42.4586538 L305.62,51.7788462 L301.476,53.85 L291.116,66.2769231 L289.044,73.5259615 L297.332,79.7394231 L296.296,85.9528846 C289.044,91.1307692 281.792,95.2730769 274.54,100.450962 L274.54,105.628846 L280.756,110.806731 L293.188,113.913462 L286.972,114.949038 L279.72,119.091346 L284.9,127.375962 L288.008,131.518269 C293.188,130.482692 297.332,130.482692 302.512,130.482692 L308.728,131.518269 L315.98,138.767308 L315.98,143.945192 L320.124,148.0875 C322.196,154.300962 324.268,160.514423 326.34,166.727885 L328.412,170.870192 L325.304,179.154808 L327.376,181.225962 L330.484,180.190385 C332.556,183.297115 335.664,186.403846 337.736,188.475 L331.52,184.332692 L328.412,184.332692 L327.376,188.475 L327.376,194.688462 L330.484,197.795192 L333.592,196.759615 C335.664,195.724038 336.7,193.652885 338.772,192.617308 L337.736,198.830769 L337.736,201.9375 L333.592,205.044231 L330.484,214.364423 L332.556,217.471154 L331.52,222.649038 L335.664,228.8625 L335.664,235.075962 L336.7,239.218269 L341.88,247.502885 L343.952,253.716346 L347.06,256.823077 L353.276,256.823077 L357.42,262.000962 L361.564,262.000962 C362.6,258.894231 363.636,254.751923 364.672,251.645192 L362.6,244.396154 L367.78,239.218269 L368.816,235.075962 L368.816,229.898077 L370.888,225.755769 C373.996,224.720192 376.068,223.684615 379.176,222.649038 L381.248,222.649038 L387.464,217.471154 L391.608,209.186538 L394.716,206.079808 L397.824,206.079808 L406.112,202.973077 L414.4,196.759615 L421.652,189.510577 L417.508,189.510577 L417.508,189.510577 Z M1030.82,215.4 L1022.532,214.364423 L1023.568,219.542308 L1021.496,217.471154 L1021.496,213.328846 L1014.244,206.079808 L1009.064,201.9375 L1009.064,201.9375 L1005.956,198.830769 L1005.956,198.830769 L1002.848,196.759615 L994.56,192.617308 L988.344,192.617308 L979.02,190.546154 L977.984,194.688462 L980.056,199.866346 L976.948,201.9375 L971.768,194.688462 L966.588,195.724038 L961.408,193.652885 L956.228,193.652885 L952.084,195.724038 L948.976,193.652885 L948.976,187.439423 L946.904,184.332692 L940.688,183.297115 L929.292,185.368269 L922.04,178.119231 L919.968,172.941346 L894.068,166.727885 L889.924,170.870192 L891.996,179.154808 L886.816,178.119231 L884.744,180.190385 L879.564,177.083654 L874.384,179.154808 L870.24,175.0125 L867.132,184.332692 L860.916,181.225962 L856.772,173.976923 L858.844,169.834615 L857.808,163.621154 L852.628,158.443269 L848.484,158.443269 L842.268,156.372115 L842.268,163.621154 L829.836,162.585577 L828.8,157.407692 L819.476,155.336538 L815.332,157.407692 L814.296,160.514423 L813.26,154.300962 L810.152,156.372115 L806.008,153.265385 L802.9,152.229808 L804.972,149.123077 L812.224,142.909615 L815.332,139.802885 L816.368,133.589423 L814.296,129.447115 L808.08,123.233654 L799.792,123.233654 L796.684,126.340385 L795.648,119.091346 L789.432,117.020192 L793.576,113.913462 L788.396,109.771154 L781.144,114.949038 L778.036,120.126923 L777,125.304808 L771.82,125.304808 L765.604,131.518269 L763.532,129.447115 L756.28,130.482692 L755.244,133.589423 L747.992,135.660577 L742.812,140.838462 L739.704,140.838462 L736.596,148.0875 L738.668,153.265385 L732.452,154.300962 L725.2,154.300962 L720.02,156.372115 L720.02,166.727885 L722.092,175.0125 L716.912,170.870192 L710.696,170.870192 L705.516,175.0125 L706.552,181.225962 L703.444,179.154808 L704.48,169.834615 L703.444,164.656731 L702.408,164.656731 L703.444,171.905769 L698.264,178.119231 L702.408,185.368269 L700.336,193.652885 L701.372,197.795192 L704.48,198.830769 L703.444,204.008654 L705.516,208.150962 L703.444,211.257692 L702.408,215.4 L699.3,217.471154 L698.264,220.577885 L695.156,219.542308 L700.336,209.186538 L701.372,204.008654 L698.264,198.830769 L699.3,187.439423 L698.264,181.225962 L694.12,179.154808 L697.228,171.905769 L696.192,166.727885 L688.94,163.621154 L686.868,165.692308 L684.796,173.976923 L679.616,182.261538 L679.616,185.368269 L680.652,191.581731 L679.616,195.724038 L682.724,196.759615 L682.724,198.830769 L685.832,202.973077 L683.76,207.115385 L673.4,197.795192 L669.256,195.724038 L660.968,193.652885 L659.932,196.759615 L663.04,201.9375 L659.932,207.115385 L656.824,201.9375 L652.68,205.044231 L647.5,205.044231 L645.428,208.150962 L642.32,207.115385 L645.428,201.9375 L643.356,201.9375 C638.176,205.044231 632.996,209.186538 626.78,212.293269 L625.744,217.471154 L621.6,219.542308 L619.528,217.471154 L619.528,213.328846 L623.672,212.293269 L621.6,208.150962 L613.312,206.079808 L615.384,211.257692 L612.276,212.293269 L614.348,216.435577 L612.276,221.613462 L609.168,219.542308 L606.06,219.542308 L600.88,225.755769 L602.952,230.933654 L600.88,233.004808 L593.628,228.8625 L591.556,230.933654 L593.628,234.040385 L593.628,237.147115 L590.52,235.075962 L587.412,233.004808 L587.412,222.649038 L582.232,217.471154 L584.304,216.435577 L596.736,221.613462 L601.916,219.542308 L605.024,215.4 L605.024,210.222115 L602.952,207.115385 L591.556,197.795192 L583.268,195.724038 L578.088,190.546154 L574.98,193.652885 L571.872,188.475 L576.016,186.403846 L567.728,181.225962 L562.548,183.297115 L557.368,183.297115 L553.224,190.546154 L548.044,190.546154 L541.828,194.688462 C537.684,199.866346 533.54,205.044231 529.396,211.257692 C525.252,219.542308 521.108,226.791346 516.964,235.075962 L510.748,242.325 L503.496,247.502885 L500.388,251.645192 L501.424,265.107692 L502.46,271.321154 L506.604,274.427885 L510.748,273.392308 L516.964,267.178846 L519.036,270.285577 L521.108,277.534615 L523.18,283.748077 L524.216,288.925962 L527.324,288.925962 L529.396,284.783654 L532.504,284.783654 L534.576,279.605769 L535.612,270.285577 L538.72,269.25 L541.828,263.036538 L538.72,259.929808 L536.648,255.7875 L538.72,247.502885 L543.9,242.325 L548.044,237.147115 L548.044,233.004808 L551.152,227.826923 L556.332,225.755769 L560.476,228.8625 L560.476,231.969231 L558.404,233.004808 L552.188,240.253846 L549.08,244.396154 L548.044,248.538462 L549.08,253.716346 L548.044,259.929808 L551.152,262.000962 L553.224,265.107692 L558.404,264.072115 L563.584,262.000962 L568.764,262.000962 L571.872,265.107692 L566.692,264.072115 L563.584,264.072115 L560.476,263.036538 L557.368,264.072115 L553.224,266.143269 L553.224,269.25 L555.296,271.321154 L556.332,270.285577 C556.332,272.356731 555.296,275.463462 555.296,277.534615 L553.224,277.534615 L551.152,273.392308 L549.08,275.463462 L548.044,278.570192 L548.044,282.7125 L549.08,286.854808 L544.936,288.925962 L543.9,290.997115 L540.792,290.997115 L540.792,289.961538 L537.684,288.925962 C534.576,289.961538 532.504,292.032692 529.396,293.068269 L527.324,294.103846 L526.288,292.032692 L523.18,289.961538 L521.108,290.997115 L518,293.068269 L518,290.997115 L514.892,289.961538 L514.892,287.890385 L513.856,284.783654 L515.928,280.641346 L516.964,281.676923 L518,279.605769 L515.928,278.570192 L515.928,277.534615 L516.964,275.463462 L516.964,272.356731 L514.892,274.427885 L513.856,275.463462 L511.784,275.463462 L510.748,277.534615 L510.748,278.570192 L510.748,283.748077 L511.784,286.854808 L511.784,289.961538 L512.82,292.032692 L509.712,295.139423 L508.676,294.103846 L506.604,294.103846 L506.604,295.139423 L504.532,295.139423 L500.388,297.210577 L497.28,304.459615 L496.244,305.495192 C494.172,306.530769 493.136,306.530769 491.064,307.566346 L490.028,311.708654 L483.812,314.815385 L480.704,312.744231 L481.74,317.922115 L476.56,315.850962 L472.416,316.886538 L472.416,319.993269 L476.56,322.064423 L478.632,324.135577 L481.74,328.277885 L481.74,336.5625 L480.704,338.633654 L475.524,338.633654 L473.452,338.633654 L470.344,337.598077 L466.2,337.598077 L463.092,336.5625 L458.948,339.669231 L459.984,341.740385 L459.984,344.847115 L459.984,345.882692 L461.02,346.918269 L461.02,348.989423 L459.984,351.060577 L459.984,352.096154 L458.948,353.131731 L458.948,355.202885 L459.984,356.238462 L461.02,356.238462 L461.02,358.309615 L461.02,361.416346 L462.056,361.416346 L463.092,361.416346 L464.128,360.380769 L467.236,361.416346 L468.272,363.4875 L469.308,364.523077 L470.344,364.523077 L471.38,363.4875 L473.452,362.451923 L479.668,362.451923 L481.74,359.345192 L483.812,358.309615 L484.848,356.238462 L486.92,357.274038 L485.884,355.202885 L486.92,352.096154 L488.992,350.025 L488.992,348.989423 L493.136,347.953846 L496.244,345.882692 L496.244,343.811538 L496.244,341.740385 L500.388,340.704808 L506.604,341.740385 L509.712,339.669231 L510.748,339.669231 L512.82,337.598077 L513.856,336.5625 L515.928,337.598077 L516.964,337.598077 L518,341.740385 L520.072,343.811538 L523.18,345.882692 L525.252,347.953846 L527.324,347.953846 L528.36,348.989423 L530.432,350.025 L531.468,352.096154 L532.504,352.096154 C533.54,353.131731 533.54,355.202885 534.576,356.238462 L532.504,357.274038 L531.468,359.345192 L531.468,360.380769 L532.504,360.380769 L533.54,357.274038 L534.576,357.274038 L534.576,355.202885 L532.504,354.167308 L533.54,352.096154 L535.612,353.131731 L537.684,355.202885 L538.72,354.167308 L538.72,353.131731 L536.648,351.060577 C534.576,350.025 533.54,348.989423 531.468,348.989423 L532.504,347.953846 L531.468,346.918269 L529.396,346.918269 L526.288,343.811538 L525.252,340.704808 L522.144,336.5625 L521.108,334.491346 L521.108,333.455769 L521.108,331.384615 L523.18,330.349038 L525.252,331.384615 C525.252,331.384615 525.252,331.384615 524.216,331.384615 L524.216,332.420192 L525.252,333.455769 L526.288,331.384615 L528.36,332.420192 L528.36,333.455769 L529.396,335.526923 L528.36,335.526923 L530.432,338.633654 L533.54,339.669231 L535.612,340.704808 C536.648,341.740385 538.72,341.740385 539.756,342.775962 L540.792,343.811538 L541.828,343.811538 L541.828,344.847115 L541.828,345.882692 L541.828,348.989423 L541.828,351.060577 L543.9,352.096154 L543.9,353.131731 L543.9,353.131731 L543.9,354.167308 C544.936,355.202885 545.972,356.238462 547.008,358.309615 L547.008,360.380769 L548.044,363.4875 L550.116,365.558654 L552.188,365.558654 L551.152,362.451923 L553.224,362.451923 L552.188,360.380769 L555.296,361.416346 L555.296,359.345192 L554.26,358.309615 L552.188,356.238462 L553.224,355.202885 L552.188,353.131731 L551.152,351.060577 L552.188,350.025 L553.224,352.096154 L555.296,352.096154 L556.332,351.060577 L554.26,348.989423 L557.368,347.953846 L558.404,347.953846 L560.476,347.953846 L560.476,348.989423 L561.512,351.060577 C562.548,350.025 563.584,348.989423 565.656,347.953846 L568.764,347.953846 L569.8,346.918269 L567.728,345.882692 L567.728,344.847115 L566.692,342.775962 L567.728,339.669231 L568.764,337.598077 L569.8,332.420192 L570.836,332.420192 L571.872,331.384615 L571.872,330.349038 L573.944,327.242308 L574.98,325.171154 L578.088,324.135577 L578.088,326.206731 L582.232,327.242308 L583.268,328.277885 L580.16,330.349038 L580.16,331.384615 L583.268,332.420192 L582.232,334.491346 L584.304,335.526923 L588.448,333.455769 L591.556,332.420192 L592.592,331.384615 L589.484,331.384615 L588.448,330.349038 L588.448,328.277885 L590.52,326.206731 L593.628,326.206731 L595.7,325.171154 L597.772,325.171154 L600.88,324.135577 L600.88,325.171154 L594.664,326.206731 L596.736,328.277885 L594.664,331.384615 L592.592,332.420192 L594.664,334.491346 L597.772,335.526923 L601.916,338.633654 L602.952,339.669231 L605.024,339.669231 L607.096,340.704808 L608.132,343.811538 L608.132,345.882692 L605.024,347.953846 L602.952,347.953846 L599.844,348.989423 L592.592,346.918269 L587.412,343.811538 L582.232,343.811538 L580.16,345.882692 L577.052,347.953846 L571.872,347.953846 L569.8,351.060577 L565.656,351.060577 L562.548,354.167308 L564.62,356.238462 L563.584,359.345192 L565.656,361.416346 L567.728,364.523077 L570.836,364.523077 L573.944,366.594231 L576.016,366.594231 L577.052,365.558654 L580.16,365.558654 L582.232,367.629808 L586.376,367.629808 L588.448,365.558654 L590.52,366.594231 L592.592,366.594231 L591.556,367.629808 L590.52,367.629808 L589.484,368.665385 L589.484,371.772115 L589.484,371.772115 L588.448,373.843269 L587.412,376.95 L587.412,376.95 L587.412,377.985577 L586.376,380.056731 L585.34,382.127885 L585.34,382.127885 L584.304,383.163462 L583.268,384.199038 L581.196,384.199038 L579.124,383.163462 L578.088,384.199038 L577.052,382.127885 L574.98,382.127885 L572.908,382.127885 L571.872,383.163462 L569.8,385.234615 C567.728,384.199038 565.656,383.163462 562.548,383.163462 L558.404,383.163462 L557.368,382.127885 L554.26,382.127885 L553.224,381.092308 L552.188,381.092308 L551.152,380.056731 L548.044,377.985577 L545.972,377.985577 L543.9,380.056731 L542.864,382.127885 L543.9,385.234615 L542.864,386.270192 L541.828,387.305769 L538.72,385.234615 L534.576,384.199038 L531.468,383.163462 L530.432,380.056731 L526.288,379.021154 L524.216,377.985577 L523.18,377.985577 L520.072,376.95 L518,376.95 L518,374.878846 L516.964,374.878846 L515.928,372.807692 L518,370.736538 L518,367.629808 L516.964,367.629808 L516.964,365.558654 L518,363.4875 L518,362.451923 L515.928,363.4875 L515.928,361.416346 L513.856,361.416346 L510.748,362.451923 L508.676,362.451923 L507.64,363.4875 L504.532,363.4875 L501.424,364.523077 L500.388,363.4875 C497.28,363.4875 494.172,363.4875 491.064,364.523077 L487.956,365.558654 L485.884,367.629808 L482.776,368.665385 L479.668,370.736538 L478.632,370.736538 L475.524,369.700962 L472.416,369.700962 L471.38,367.629808 L469.308,367.629808 L468.272,369.700962 L466.2,373.843269 L464.128,374.878846 L461.02,376.95 L458.948,379.021154 L458.948,381.092308 L457.912,384.199038 L458.948,388.341346 L455.84,390.4125 L454.804,391.448077 L452.732,393.519231 L449.624,393.519231 L448.588,394.554808 L446.516,398.697115 L444.444,399.732692 L443.408,401.803846 L443.408,403.875 L442.372,405.946154 L441.336,405.946154 L439.264,408.017308 L438.228,410.088462 L438.228,411.124038 L437.192,413.195192 L436.156,414.230769 L436.156,417.3375 L437.192,418.373077 L438.228,419.408654 L438.228,420.444231 L438.228,421.479808 L438.228,424.586538 L438.228,427.693269 L438.228,429.764423 L438.228,431.835577 L437.192,432.871154 L436.156,434.942308 L435.12,435.977885 L436.156,437.013462 L437.192,439.084615 L437.192,440.120192 L437.192,442.191346 L437.192,443.226923 L438.228,444.2625 L438.228,444.2625 L439.264,445.298077 L440.3,445.298077 L441.336,446.333654 L442.372,446.333654 L442.372,447.369231 L442.372,448.404808 L443.408,449.440385 L444.444,449.440385 L445.48,450.475962 L446.516,452.547115 L446.516,454.618269 L446.516,455.653846 L447.552,457.725 L449.624,458.760577 L450.66,458.760577 L452.732,460.831731 L454.804,462.902885 L457.912,464.974038 L461.02,466.009615 L462.056,466.009615 L463.092,466.009615 C465.164,464.974038 466.2,464.974038 468.272,463.938462 L471.38,463.938462 L473.452,463.938462 L475.524,464.974038 L476.56,464.974038 L478.632,466.009615 L481.74,464.974038 L483.812,463.938462 L487.956,461.867308 L490.028,460.831731 L492.1,460.831731 L497.28,460.831731 L499.352,462.902885 L500.388,464.974038 L501.424,467.045192 L503.496,467.045192 L504.532,466.009615 L505.568,466.009615 L508.676,464.974038 L508.676,466.009615 L509.712,466.009615 L510.748,467.045192 L511.784,467.045192 L512.82,469.116346 L512.82,471.1875 L511.784,474.294231 L512.82,474.294231 C512.82,475.329808 511.784,477.400962 511.784,478.436538 L511.784,481.543269 L511.784,482.578846 L513.856,485.685577 L515.928,487.756731 L519.036,490.863462 L521.108,493.970192 L522.144,496.041346 L522.144,497.076923 L522.144,498.1125 L523.18,500.183654 C523.18,502.254808 524.216,503.290385 524.216,505.361538 L523.18,506.397115 L523.18,507.432692 C523.18,508.468269 524.216,509.503846 524.216,510.539423 L525.252,511.575 L525.252,513.646154 L525.252,515.717308 L524.216,516.752885 L522.144,518.824038 L521.108,519.859615 L520.072,522.966346 L520.072,524.001923 L519.036,527.108654 L519.036,530.215385 L519.036,534.357692 L521.108,537.464423 L522.144,539.535577 L523.18,543.677885 L524.216,545.749038 L525.252,546.784615 L525.252,548.855769 L525.252,552.998077 L526.288,558.175962 L527.324,560.247115 L528.36,563.353846 L529.396,565.425 L531.468,567.496154 C533.54,570.602885 534.576,574.745192 536.648,577.851923 L536.648,580.958654 L535.612,581.994231 L536.648,584.065385 L536.648,586.136538 L536.648,587.172115 L536.648,587.172115 L537.684,589.243269 L538.72,589.243269 L539.756,590.278846 L540.792,590.278846 L542.864,589.243269 L544.936,588.207692 L548.044,587.172115 L549.08,587.172115 L551.152,587.172115 L554.26,588.207692 L555.296,587.172115 L557.368,587.172115 L557.368,586.136538 L558.404,586.136538 L561.512,585.100962 L563.584,583.029808 C565.656,580.958654 566.692,578.8875 568.764,577.851923 L570.836,575.780769 L571.872,573.709615 L572.908,571.638462 C573.944,570.602885 574.98,570.602885 574.98,569.567308 L580.16,564.389423 L580.16,561.282692 L581.196,559.211538 L581.196,557.140385 L580.16,557.140385 L580.16,556.104808 L581.196,555.069231 C583.268,554.033654 585.34,552.998077 587.412,551.9625 L588.448,550.926923 L588.448,549.891346 L587.412,548.855769 L587.412,547.820192 L587.412,544.713462 L587.412,544.713462 L587.412,543.677885 L586.376,541.606731 L585.34,539.535577 L585.34,537.464423 L586.376,536.428846 L588.448,534.357692 L589.484,533.322115 L592.592,530.215385 C594.664,529.179808 596.736,528.144231 598.808,527.108654 L600.88,525.0375 L601.916,522.966346 L602.952,520.895192 L602.952,519.859615 L602.952,515.717308 L602.952,512.610577 L602.952,509.503846 L602.952,508.468269 L601.916,507.432692 L600.88,505.361538 L599.844,503.290385 L599.844,502.254808 L599.844,501.219231 L600.88,499.148077 L600.88,498.1125 L598.808,497.076923 L598.808,495.005769 L599.844,491.899038 L600.88,491.899038 L601.916,489.827885 L602.952,488.792308 L602.952,486.721154 L603.988,486.721154 L605.024,485.685577 L607.096,484.65 L608.132,483.614423 L609.168,482.578846 L612.276,479.472115 L615.384,477.400962 L619.528,474.294231 L622.636,472.223077 C624.708,470.151923 626.78,467.045192 628.852,464.974038 L630.924,460.831731 C631.96,458.760577 632.996,456.689423 634.032,453.582692 L635.068,450.475962 L636.104,449.440385 L636.104,448.404808 L636.104,446.333654 L636.104,445.298077 L635.068,445.298077 L631.96,445.298077 L630.924,445.298077 L629.888,445.298077 L627.816,445.298077 L626.78,446.333654 L625.744,446.333654 L623.672,447.369231 L620.564,447.369231 L617.456,448.404808 L616.42,448.404808 L615.384,447.369231 L614.348,446.333654 C613.312,446.333654 613.312,445.298077 612.276,445.298077 L614.348,444.2625 L614.348,443.226923 L611.24,442.191346 L610.204,441.155769 C609.168,440.120192 607.096,438.049038 606.06,437.013462 L600.88,433.906731 L598.808,432.871154 L598.808,429.764423 L596.736,426.657692 C595.7,425.622115 594.664,425.622115 593.628,424.586538 L592.592,420.444231 L592.592,417.3375 L593.628,416.301923 L592.592,413.195192 L592.592,412.159615 L589.484,409.052885 L589.484,406.981731 L590.52,405.946154 L587.412,402.839423 L586.376,400.768269 L585.34,398.697115 L583.268,393.519231 L581.196,390.4125 L579.124,388.341346 L579.124,388.341346 L581.196,393.519231 C582.232,394.554808 582.232,395.590385 583.268,395.590385 L584.304,394.554808 L585.34,392.483654 L586.376,390.4125 L587.412,389.376923 L587.412,389.376923 L587.412,390.4125 L587.412,391.448077 L587.412,393.519231 L588.448,393.519231 C589.484,395.590385 590.52,396.625962 591.556,398.697115 L592.592,400.768269 L593.628,401.803846 L594.664,403.875 L594.664,404.910577 L595.7,406.981731 L597.772,408.017308 L598.808,409.052885 L600.88,412.159615 L600.88,414.230769 L600.88,416.301923 L602.952,419.408654 L603.988,419.408654 L606.06,421.479808 L607.096,423.550962 L608.132,425.622115 L609.168,426.657692 L609.168,427.693269 L610.204,428.728846 L610.204,429.764423 L610.204,430.8 L610.204,431.835577 L610.204,432.871154 L609.168,432.871154 L610.204,433.906731 L611.24,435.977885 L611.24,437.013462 L611.24,439.084615 L612.276,441.155769 L614.348,441.155769 L615.384,441.155769 L616.42,441.155769 L616.42,440.120192 L617.456,440.120192 L618.492,439.084615 L619.528,439.084615 L621.6,439.084615 L623.672,438.049038 L625.744,437.013462 L626.78,437.013462 L627.816,437.013462 L629.888,434.942308 L634.032,433.906731 L637.14,432.871154 L637.14,431.835577 L638.176,430.8 L640.248,429.764423 L641.284,429.764423 L643.356,428.728846 L645.428,428.728846 L646.464,427.693269 L646.464,426.657692 L647.5,425.622115 L649.572,425.622115 L650.608,424.586538 L650.608,423.550962 L652.68,422.515385 L653.716,422.515385 L653.716,422.515385 L653.716,420.444231 L653.716,418.373077 L654.752,417.3375 L655.788,417.3375 L656.824,415.266346 L657.86,414.230769 C657.86,413.195192 658.896,412.159615 658.896,411.124038 L658.896,410.088462 L657.86,410.088462 C656.824,409.052885 656.824,408.017308 655.788,406.981731 L653.716,405.946154 L651.644,405.946154 L649.572,404.910577 L648.536,402.839423 L648.536,400.768269 L648.536,399.732692 L648.536,398.697115 L648.536,398.697115 L647.5,399.732692 C645.428,401.803846 643.356,403.875 641.284,405.946154 L637.14,405.946154 L635.068,405.946154 L635.068,404.910577 L635.068,404.910577 L634.032,403.875 L635.068,401.803846 L635.068,399.732692 L634.032,398.697115 L632.996,398.697115 L631.96,400.768269 L631.96,402.839423 L631.96,401.803846 L631.96,400.768269 L631.96,401.803846 L631.96,400.768269 L631.96,399.732692 L631.96,398.697115 L629.888,397.661538 L629.888,396.625962 L628.852,395.590385 C627.816,393.519231 627.816,392.483654 626.78,390.4125 L626.78,389.376923 L624.708,388.341346 L626.78,388.341346 L627.816,387.305769 L629.888,388.341346 L631.96,387.305769 L634.032,391.448077 L636.104,394.554808 L639.212,395.590385 L642.32,397.661538 L645.428,398.697115 L648.536,396.625962 L650.608,395.590385 L651.644,396.625962 L652.68,400.768269 L655.788,400.768269 C658.896,401.803846 662.004,401.803846 664.076,402.839423 L668.22,402.839423 L673.4,402.839423 L678.58,401.803846 L680.652,403.875 L681.688,405.946154 L683.76,406.981731 L686.868,410.088462 L687.904,411.124038 L686.868,412.159615 L691.012,416.301923 L693.084,416.301923 L697.228,414.230769 L698.264,417.3375 L698.264,421.479808 C699.3,424.586538 699.3,427.693269 700.336,430.8 L703.444,434.942308 L703.444,437.013462 L704.48,441.155769 L705.516,444.2625 L706.552,445.298077 C707.588,447.369231 708.624,450.475962 708.624,452.547115 L711.732,455.653846 L712.768,454.618269 L713.804,452.547115 L716.912,451.511538 L715.876,450.475962 L716.912,448.404808 L717.948,448.404808 L717.948,443.226923 L718.984,440.120192 L718.984,438.049038 L717.948,433.906731 L718.984,431.835577 L720.02,431.835577 L723.128,430.8 L724.164,429.764423 L724.164,428.728846 L727.272,426.657692 L729.344,424.586538 L732.452,421.479808 L736.596,419.408654 L737.632,417.3375 L737.632,415.266346 L740.74,414.230769 L742.812,414.230769 L742.812,413.195192 L743.848,413.195192 L744.884,413.195192 L744.884,412.159615 L745.92,413.195192 L746.956,411.124038 L746.956,410.088462 L750.064,410.088462 L751.1,412.159615 L752.136,413.195192 L752.136,415.266346 L753.172,417.3375 L755.244,419.408654 L757.316,419.408654 L757.316,420.444231 L759.388,423.550962 L760.424,426.657692 L759.388,430.8 L761.46,431.835577 L763.532,431.835577 L766.64,429.764423 L768.712,428.728846 L769.748,430.8 L770.784,434.942308 L771.82,438.049038 L772.856,439.084615 L772.856,442.191346 L773.892,444.2625 L772.856,446.333654 L772.856,448.404808 L771.82,451.511538 L771.82,453.582692 L772.856,455.653846 L772.856,453.582692 C773.892,454.618269 774.928,455.653846 775.964,456.689423 L775.964,457.725 L777,458.760577 L778.036,459.796154 L778.036,461.867308 L779.072,463.938462 L779.072,466.009615 L781.144,468.080769 L781.144,469.116346 L784.252,471.1875 L787.36,473.258654 L789.432,473.258654 L789.432,472.223077 L786.324,471.1875 L785.288,471.1875 L785.288,469.116346 L785.288,468.080769 L785.288,467.045192 L785.288,464.974038 L784.252,462.902885 L782.18,460.831731 L781.144,460.831731 L780.108,459.796154 L778.036,459.796154 L777,457.725 L775.964,455.653846 L774.928,452.547115 L772.856,452.547115 L772.856,450.475962 C773.892,448.404808 774.928,446.333654 774.928,443.226923 L774.928,440.120192 L777,440.120192 L777,442.191346 L779.072,442.191346 L782.18,443.226923 L783.216,446.333654 L784.252,447.369231 L786.324,447.369231 L788.396,449.440385 L787.36,451.511538 L788.396,453.582692 L791.504,450.475962 L793.576,448.404808 L796.684,446.333654 L798.756,444.2625 L798.756,439.084615 L797.72,433.906731 L795.648,431.835577 L796.684,429.764423 C794.612,427.693269 793.576,424.586538 791.504,422.515385 L792.54,420.444231 L794.612,417.3375 L798.756,414.230769 L799.792,414.230769 L803.936,415.266346 L802.9,416.301923 L803.936,418.373077 L806.008,418.373077 L807.044,415.266346 L810.152,415.266346 L814.296,413.195192 L816.368,412.159615 L817.404,413.195192 L819.476,412.159615 L822.584,412.159615 C825.692,410.088462 827.764,408.017308 830.872,406.981731 L833.98,402.839423 C835.016,399.732692 837.088,397.661538 838.124,395.590385 L840.196,395.590385 L841.232,392.483654 L841.232,389.376923 L839.16,388.341346 L838.124,386.270192 L840.196,385.234615 L840.196,383.163462 L838.124,380.056731 L836.052,376.95 L835.016,373.843269 L831.908,371.772115 L832.944,369.700962 L836.052,367.629808 L837.088,365.558654 L841.232,364.523077 L841.232,362.451923 L839.16,362.451923 L837.088,361.416346 L833.98,364.523077 L831.908,363.4875 L831.908,361.416346 L829.836,360.380769 L825.692,357.274038 L826.728,355.202885 L829.836,355.202885 L831.908,353.131731 L835.016,350.025 L837.088,348.989423 L838.124,351.060577 L836.052,353.131731 L837.088,354.167308 L836.052,356.238462 L839.16,355.202885 L841.232,353.131731 L845.376,352.096154 L846.412,353.131731 L848.484,353.131731 L848.484,354.167308 L848.484,357.274038 L848.484,358.309615 L847.448,358.309615 L846.412,360.380769 L847.448,361.416346 L848.484,361.416346 L848.484,362.451923 L849.52,362.451923 L849.52,361.416346 L850.556,362.451923 L852.628,365.558654 L850.556,366.594231 L851.592,370.736538 L850.556,373.843269 L850.556,375.914423 L853.664,375.914423 L855.736,374.878846 L858.844,373.843269 L859.88,371.772115 L859.88,367.629808 L859.88,362.451923 L857.808,357.274038 L855.736,355.202885 L854.7,354.167308 L854.7,354.167308 L854.7,352.096154 L855.736,351.060577 L857.808,350.025 L858.844,348.989423 L858.844,347.953846 L859.88,346.918269 L859.88,343.811538 L860.916,342.775962 L861.952,341.740385 L862.988,341.740385 L862.988,340.704808 L867.132,337.598077 L869.204,339.669231 L871.276,339.669231 L875.42,337.598077 C878.528,333.455769 881.636,329.313462 884.744,326.206731 L885.78,323.1 L889.924,316.886538 L890.96,309.6375 L890.96,304.459615 L893.032,299.281731 L893.032,295.139423 L890.96,292.032692 L887.852,292.032692 L885.78,294.103846 L882.672,293.068269 L881.636,289.961538 L877.492,288.925962 C884.744,281.676923 890.96,273.392308 898.212,266.143269 L907.536,264.072115 L916.86,265.107692 L919.968,262.000962 L924.112,263.036538 L924.112,267.178846 L928.256,266.143269 L934.472,265.107692 L932.4,262.000962 L939.652,251.645192 L946.904,249.574038 L948.976,256.823077 L952.084,253.716346 L952.084,253.716346 L956.228,249.574038 L958.3,244.396154 L961.408,243.360577 L959.336,253.716346 L954.156,258.894231 C951.048,263.036538 946.904,267.178846 943.796,271.321154 L939.652,272.356731 L939.652,274.427885 L937.58,277.534615 L936.544,284.783654 C937.58,290.997115 938.616,297.210577 939.652,302.388462 L940.688,305.495192 L944.832,301.352885 L945.868,296.175 L950.012,295.139423 L951.048,289.961538 L953.12,288.925962 L953.12,288.925962 L956.228,287.890385 L955.192,285.819231 L956.228,281.676923 L959.336,281.676923 L959.336,274.427885 L956.228,273.392308 L956.228,271.321154 L959.336,266.143269 L960.372,262.000962 L964.516,263.036538 L967.624,260.965385 L968.66,263.036538 L975.912,258.894231 L980.056,263.036538 L981.092,259.929808 C984.2,257.858654 987.308,254.751923 989.38,251.645192 L991.452,250.609615 L999.74,246.467308 L1004.92,247.502885 L1005.956,245.431731 L1005.956,242.325 L1004.92,240.253846 L1002.848,235.075962 L999.74,231.969231 L1003.884,231.969231 L1006.992,228.8625 L1006.992,228.8625 L1008.028,227.826923 L1008.028,227.826923 L1009.064,225.755769 L1008.028,222.649038 L1011.136,220.577885 L1010.1,223.684615 L1012.172,225.755769 L1015.28,224.720192 L1018.388,225.755769 L1019.424,228.8625 L1023.568,230.933654 L1025.64,233.004808 L1028.748,233.004808 L1029.784,231.969231 L1029.784,225.755769 L1034.964,224.720192 L1036,222.649038 L1030.82,215.4 L1030.82,215.4 Z M642.32,350.025 L639.212,348.989423 L638.176,352.096154 L640.248,352.096154 L639.212,354.167308 L641.284,355.202885 L641.284,359.345192 L642.32,361.416346 L642.32,362.451923 L638.176,363.4875 L634.032,362.451923 L631.96,360.380769 L628.852,359.345192 L627.816,356.238462 L627.816,354.167308 L628.852,353.131731 L628.852,352.096154 L628.852,348.989423 L630.924,348.989423 L629.888,347.953846 L628.852,347.953846 L627.816,344.847115 C625.744,342.775962 624.708,340.704808 622.636,338.633654 L622.636,335.526923 L621.6,334.491346 L624.708,330.349038 L627.816,329.313462 L628.852,327.242308 L631.96,326.206731 L635.068,324.135577 L637.14,325.171154 L640.248,325.171154 L640.248,328.277885 L639.212,332.420192 L637.14,331.384615 L635.068,332.420192 L635.068,335.526923 L631.96,335.526923 L631.96,336.5625 L634.032,337.598077 L635.068,340.704808 L638.176,341.740385 L639.212,342.775962 L638.176,344.847115 L638.176,345.882692 L639.212,347.953846 L639.212,344.847115 L641.284,343.811538 L642.32,346.918269 L644.392,348.989423 L642.32,350.025 L642.32,350.025 Z" id="Shape" fill="#FFFFFF"></path>
            <circle id="Oval-1" fill="#D0011B" cx="571" cy="298" r="4"></circle>
            <circle id="Oval-1" fill="#D0011B" cx="513" cy="311" r="4"></circle>
            <circle id="Oval-1" fill="#D0011B" cx="579" cy="386" r="4"></circle>
            <circle id="Oval-1" fill="#D0011B" cx="247" cy="327" r="4"></circle>
            <path d="M258,334 C260.209139,334 262,332.209139 262,330 C262,327.790861 260.209139,326 258,326 C255.790861,326 254,327.790861 254,330 C254,332.209139 255.790861,334 258,334 Z" id="Oval-1" fill="#D0011B"></path>
            <circle id="Oval-1" fill="#D0011B" cx="858" cy="366" r="4"></circle>
        </g>
    </g>
</svg>